<?xml version="1.0" encoding="UTF-8" standalone="no"?>
<svg
   height="18px"
   viewBox="0 -960 960 960"
   width="18px"
   fill="#1f1f1f"
   version="1.1"
   id="svg1"
   sodipodi:docname="left_to_right.svg"
   inkscape:version="1.4 (e7c3feb1, 2024-10-09)"
   xmlns:inkscape="http://www.inkscape.org/namespaces/inkscape"
   xmlns:sodipodi="http://sodipodi.sourceforge.net/DTD/sodipodi-0.dtd"
   xmlns="http://www.w3.org/2000/svg"
   xmlns:svg="http://www.w3.org/2000/svg">
  <defs
     id="defs1" />
  <sodipodi:namedview
     id="namedview1"
     pagecolor="#ffffff"
     bordercolor="#000000"
     borderopacity="0.25"
     inkscape:showpageshadow="2"
     inkscape:pageopacity="0.0"
     inkscape:pagecheckerboard="0"
     inkscape:deskcolor="#d1d1d1"
     inkscape:zoom="42.041667"
     inkscape:cx="11.988107"
     inkscape:cy="12"
     inkscape:window-width="1200"
     inkscape:window-height="1186"
     inkscape:window-x="76"
     inkscape:window-y="25"
     inkscape:window-maximized="0"
     inkscape:current-layer="svg1">
    <inkscape:page
       x="0"
       y="0"
       width="960"
       height="960"
       id="page2"
       margin="0"
       bleed="0" />
  </sodipodi:namedview>
  <path
     d="m 880,-200 q 0,50 -35,85 -35,35 -85,35 -39,0 -70,-22.5 -31,-22.5 -43,-57.5 h -87 q -50,0 -85,-35 -35,-35 -35,-85 V -440 H 313 q -12,35 -43,57.5 -31,22.5 -70,22.5 -50,0 -85,-35 -35,-35 -35,-85 0,-50 35,-85 35,-35 85,-35 39,0 70,22.5 31,22.5 43,57.5 h 127 v -160 q 0,-50 35,-85 35,-35 85,-35 h 87 q 12,-35 43,-57.5 31,-22.5 70,-22.5 50,0 85,35 35,35 35,85 0,50 -35,85 -35,35 -85,35 -39,0 -70,-22.5 -31,-22.5 -43,-57.5 h -87 q -17,0 -28.5,11.5 Q 520,-697 520,-680 v 160 h 127 q 12,-35 43,-57.5 31,-22.5 70,-22.5 50,0 85,35 35,35 35,85 0,50 -35,85 -35,35 -85,35 -39,0 -70,-22.5 Q 659,-405 647,-440 H 520 v 160 q 0,17 11.5,28.5 11.5,11.5 28.5,11.5 h 87 q 12,-35 43,-57.5 31,-22.5 70,-22.5 50,0 85,35 35,35 35,85 z m -80,0 q 0,-17 -11.5,-28.5 Q 777,-240 760,-240 q -17,0 -28.5,11.5 -11.5,11.5 -11.5,28.5 0,17 11.5,28.5 11.5,11.5 28.5,11.5 17,0 28.5,-11.5 Q 800,-183 800,-200 Z m 0,-280 q 0,-17 -11.5,-28.5 Q 777,-520 760,-520 q -17,0 -28.5,11.5 -11.5,11.5 -11.5,28.5 0,17 11.5,28.5 11.5,11.5 28.5,11.5 17,0 28.5,-11.5 Q 800,-463 800,-480 Z m 0,-280 q 0,-17 -11.5,-28.5 Q 777,-800 760,-800 q -17,0 -28.5,11.5 -11.5,11.5 -11.5,28.5 0,17 11.5,28.5 11.5,11.5 28.5,11.5 17,0 28.5,-11.5 Q 800,-743 800,-760 Z m -560,280 q 0,-17 -11.5,-28.5 Q 217,-520 200,-520 q -17,0 -28.5,11.5 -11.5,11.5 -11.5,28.5 0,17 11.5,28.5 11.5,11.5 28.5,11.5 17,0 28.5,-11.5 Q 240,-463 240,-480 Z"
     id="path1" />
</svg>
